<svg width="23" height="23" viewBox="0 0 23 23" fill="none" xmlns="http://www.w3.org/2000/svg">
<path d="M9.80908 9.04201V19.0342C9.80908 20.019 10.6074 20.8174 11.5922 20.8174H11.7648C12.7496 20.8174 13.5479 20.019 13.5479 19.0342V9.04201C13.5479 8.05721 12.7496 7.25886 11.7648 7.25886H11.5922C10.6074 7.25886 9.80908 8.05721 9.80908 9.04201Z" stroke="#F5C249" stroke-width="1.664" stroke-linecap="round" stroke-linejoin="round"/>
<path d="M16.9749 4.52251V19.0342C16.9749 20.019 17.7732 20.8174 18.758 20.8174H18.9306C19.9154 20.8174 20.7137 20.019 20.7137 19.0342V4.52251C20.7137 3.5377 19.9154 2.73936 18.9306 2.73936H18.758C17.7732 2.73936 16.9749 3.5377 16.9749 4.52251Z" stroke="#F5C249" stroke-width="1.664" stroke-linecap="round" stroke-linejoin="round"/>
<path d="M2.64355 14.4983L2.64355 19.0342C2.64355 20.019 3.4419 20.8174 4.4267 20.8174H4.59927C5.58408 20.8174 6.38242 20.019 6.38242 19.0342V14.4983C6.38242 13.5135 5.58408 12.7151 4.59927 12.7151H4.4267C3.4419 12.7151 2.64355 13.5135 2.64355 14.4983Z" stroke="#F5C249" stroke-width="1.664" stroke-linecap="round" stroke-linejoin="round"/>
</svg>
