<svg width="23" height="23" viewBox="0 0 23 23" fill="none" xmlns="http://www.w3.org/2000/svg">
<path d="M11.2483 16.1418C13.0545 16.1418 14.5187 14.6775 14.5187 12.8713C14.5187 11.0651 13.0545 9.60083 11.2483 9.60083C9.44203 9.60083 7.97778 11.0651 7.97778 12.8713C7.97778 14.6775 9.44203 16.1418 11.2483 16.1418Z" stroke="#787A8D" stroke-width="1.664" stroke-miterlimit="10"/>
<path d="M20.287 16.6099C20.287 17.6023 19.8934 18.5541 19.1924 19.2566C18.4915 19.9591 17.5405 20.3548 16.5481 20.357H5.94785C4.95549 20.3548 4.00451 19.9591 3.30357 19.2566C2.60263 18.5541 2.20898 17.6023 2.20898 16.6099V12.2383C2.2114 11.247 2.60401 10.2964 3.30188 9.59234L8.60203 4.3004C8.9493 3.95256 9.36174 3.67661 9.81577 3.48832C10.2698 3.30004 10.7565 3.20312 11.248 3.20312C11.7395 3.20313 12.2262 3.30004 12.6802 3.48832C13.1343 3.67661 13.5467 3.95256 13.894 4.3004L19.1941 9.59234C19.892 10.2964 20.2846 11.247 20.287 12.2383V16.6099Z" stroke="#787A8D" stroke-width="1.664" stroke-miterlimit="10"/>
</svg>
