<svg width="23" height="23" viewBox="0 0 23 23" fill="none" xmlns="http://www.w3.org/2000/svg">
<path d="M19.1153 12.4108C19.1137 14.0731 18.6193 15.6976 17.6946 17.0789C16.7699 18.4602 15.4565 19.5364 13.9203 20.1714C12.3841 20.8064 10.6941 20.9717 9.064 20.6464C7.43388 20.3211 5.9368 19.5198 4.76198 18.3439C3.58716 17.1679 2.78736 15.67 2.46366 14.0396C2.13997 12.4092 2.30692 10.7193 2.94341 9.18378C3.57991 7.64821 4.65736 6.33581 6.03959 5.41248C7.42182 4.48915 9.04676 3.99634 10.709 3.99634V12.4108H19.1153Z" stroke="#787A8D" stroke-width="1.664" stroke-linecap="round" stroke-linejoin="round"/>
<path d="M20.3562 8.7954H14.2261V2.73926C15.7051 3.08913 17.0594 3.83923 18.1407 4.90741C19.2219 5.97559 20.3789 7.32068 20.7467 8.7954H20.3562Z" stroke="#787A8D" stroke-width="1.664" stroke-linecap="round" stroke-linejoin="round"/>
</svg>
