<svg width="23" height="23" viewBox="0 0 23 23" fill="none" xmlns="http://www.w3.org/2000/svg">
<path d="M13.8063 3.93091L14.3568 4.89233C14.5646 5.25554 14.8649 5.55718 15.2273 5.76649C15.5896 5.9758 16.0009 6.0853 16.4194 6.08384H17.504C17.9211 6.08215 18.3312 6.19069 18.6928 6.39848C19.0543 6.60627 19.3546 6.90591 19.5631 7.26708C19.7717 7.62825 19.881 8.0381 19.8802 8.45514C19.8794 8.87218 19.7683 9.28159 19.5584 9.64192L18.9996 10.5951C18.7896 10.9571 18.6791 11.3682 18.6791 11.7866C18.6791 12.2051 18.7896 12.6161 18.9996 12.9781L19.5584 13.9313C19.7663 14.2915 19.8756 14.7 19.8754 15.1158C19.8752 15.5317 19.7654 15.9401 19.5572 16.3C19.3489 16.6599 19.0495 16.9586 18.689 17.166C18.3286 17.3733 17.9199 17.4821 17.504 17.4812H16.4194C16.0009 17.4797 15.5896 17.5892 15.2273 17.7986C14.8649 18.0079 14.5646 18.3095 14.3568 18.6727L13.8063 19.6341C13.5992 19.9962 13.3002 20.297 12.9394 20.5063C12.5787 20.7156 12.169 20.8258 11.7519 20.8258C11.3349 20.8258 10.9252 20.7156 10.5645 20.5063C10.2037 20.297 9.90468 19.9962 9.69762 19.6341L9.14707 18.6727C8.9393 18.3095 8.63895 18.0079 8.27663 17.7986C7.9143 17.5892 7.50296 17.4797 7.08453 17.4812H5.99985C5.58281 17.4829 5.17273 17.3744 4.81114 17.1666C4.44955 16.9588 4.14929 16.6591 3.94076 16.298C3.73224 15.9368 3.62285 15.5269 3.62369 15.1099C3.62453 14.6929 3.73555 14.2835 3.94552 13.9231L4.5043 12.9699C4.71426 12.6079 4.82484 12.1969 4.82484 11.7784C4.82484 11.3599 4.71426 10.9489 4.5043 10.5869L3.92909 9.6337C3.71838 9.27217 3.60731 8.86123 3.60718 8.44278C3.60705 8.02433 3.71787 7.61332 3.92836 7.25166C4.13884 6.89 4.44145 6.59061 4.80535 6.38402C5.16925 6.17742 5.58142 6.07101 5.99985 6.07562H7.08453C7.50215 6.07791 7.91295 5.96965 8.2752 5.76183C8.63745 5.554 8.93826 5.25401 9.14707 4.89233L9.69762 3.93091C9.90468 3.56888 10.2037 3.268 10.5645 3.05873C10.9252 2.84947 11.3349 2.73926 11.7519 2.73926C12.169 2.73926 12.5787 2.84947 12.9394 3.05873C13.3002 3.268 13.5992 3.56888 13.8063 3.93091Z" stroke="#F5C249" stroke-width="1.664" stroke-linecap="round" stroke-linejoin="round"/>
<path d="M11.752 14.8928C13.4721 14.8928 14.8664 13.4984 14.8664 11.7784C14.8664 10.0584 13.4721 8.66406 11.752 8.66406C10.032 8.66406 8.6377 10.0584 8.6377 11.7784C8.6377 13.4984 10.032 14.8928 11.752 14.8928Z" stroke="#F5C249" stroke-width="2.21867" stroke-linecap="round" stroke-linejoin="round"/>
</svg>
